HIERARCHY
ROOT Hips
{
	OFFSET -14.64140 90.27770 -84.91600
	CHANNELS 6 Xposition Yposition Zposition Zrotation Xrotation Yrotation
	JOINT Spine
	{
		OFFSET 0.00000 13.20850 -1.60436
		CHANNELS 3 Zrotation Xrotation Yrotation
		JOINT Spine1
		{
			OFFSET 0.00000 8.61716 0.00000
			CHANNELS 3 Zrotation Xrotation Yrotation
			JOINT Spine2
			{
				OFFSET 0.00000 8.61717 0.00000
				CHANNELS 3 Zrotation Xrotation Yrotation
				JOINT Spine3
				{
					OFFSET 0.00000 8.61717 0.00000
					CHANNELS 3 Zrotation Xrotation Yrotation
					JOINT Neck
					{
						OFFSET 0.00000 11.07920 1.10792
						CHANNELS 3 Zrotation Xrotation Yrotation
						JOINT Neck1
						{
							OFFSET 0.00000 7.08032 0.00000
							CHANNELS 3 Zrotation Xrotation Yrotation
							JOINT Head
							{
								OFFSET 0.00000 7.08031 0.00000
								CHANNELS 3 Zrotation Xrotation Yrotation
								End site
								{
									OFFSET 0.00000 0.00000 0.00000
								}
							}
						}
					}
					JOINT RightShoulder
					{
						OFFSET -0.01000 7.91373 5.19711
						CHANNELS 3 Zrotation Xrotation Yrotation
						JOINT RightArm
						{
							OFFSET -18.41580 0.00000 0.00000
							CHANNELS 3 Zrotation Xrotation Yrotation
							JOINT RightForeArm
							{
								OFFSET -29.11090 0.00000 0.00000
								CHANNELS 3 Zrotation Xrotation Yrotation
								JOINT RightHand
								{
									OFFSET -24.65040 0.00000 0.00000
									CHANNELS 3 Zrotation Xrotation Yrotation
									JOINT RightHandThumb1
									{
										OFFSET -5.35114 -0.85590 3.97906
										CHANNELS 3 Zrotation Xrotation Yrotation
										JOINT RightHandThumb2
										{
											OFFSET -4.52789 0.00000 0.00000
											CHANNELS 3 Zrotation Xrotation Yrotation
											JOINT RightHandThumb3
											{
												OFFSET -2.46976 0.00000 0.00000
												CHANNELS 3 Zrotation Xrotation Yrotation
												End site
												{
													OFFSET 0.00000 0.00000 0.00000
												}
											}
										}
									}
									JOINT RightHandIndex1
									{
										OFFSET -14.26970 0.00000 2.88139
										CHANNELS 3 Zrotation Xrotation Yrotation
										JOINT RightHandIndex2
										{
											OFFSET -5.48836 0.00000 0.00000
											CHANNELS 3 Zrotation Xrotation Yrotation
											JOINT RightHandIndex3
											{
												OFFSET -3.01859 0.00000 0.00000
												CHANNELS 3 Zrotation Xrotation Yrotation
												End site
												{
													OFFSET 0.00000 0.00000 0.00000
												}
											}
										}
									}
									JOINT RightHandMiddle1
									{
										OFFSET -14.26970 0.00000 -0.09147
										CHANNELS 3 Zrotation Xrotation Yrotation
										JOINT RightHandMiddle2
										{
											OFFSET -6.17441 0.00000 0.00000
											CHANNELS 3 Zrotation Xrotation Yrotation
											JOINT RightHandMiddle3
											{
												OFFSET -3.56743 0.00000 0.00000
												CHANNELS 3 Zrotation Xrotation Yrotation
												End site
												{
													OFFSET 0.00000 0.00000 0.00000
												}
											}
										}
									}
									JOINT RightHandRing1
									{
										OFFSET -12.69180 0.00000 -3.06433
										CHANNELS 3 Zrotation Xrotation Yrotation
										JOINT RightHandRing2
										{
											OFFSET -5.62556 0.00000 0.00000
											CHANNELS 3 Zrotation Xrotation Yrotation
											JOINT RightHandRing3
											{
												OFFSET -3.56744 0.00000 0.00000
												CHANNELS 3 Zrotation Xrotation Yrotation
												End site
												{
													OFFSET 0.00000 0.00000 0.00000
												}
											}
										}
									}
									JOINT RightHandPinky1
									{
										OFFSET -11.11390 0.00000 -6.03719
										CHANNELS 3 Zrotation Xrotation Yrotation
										JOINT RightHandPinky2
										{
											OFFSET -4.52789 0.00000 0.00000
											CHANNELS 3 Zrotation Xrotation Yrotation
											JOINT RightHandPinky3
											{
												OFFSET -2.46976 0.00000 0.00000
												CHANNELS 3 Zrotation Xrotation Yrotation
												End site
												{
													OFFSET 0.00000 0.00000 0.00000
												}
											}
										}
									}
								}
							}
						}
					}
					JOINT LeftShoulder
					{
						OFFSET 0.01000 7.91373 5.19711
						CHANNELS 3 Zrotation Xrotation Yrotation
						JOINT LeftArm
						{
							OFFSET 18.41580 0.00000 0.00000
							CHANNELS 3 Zrotation Xrotation Yrotation
							JOINT LeftForeArm
							{
								OFFSET 29.11090 0.00000 0.00000
								CHANNELS 3 Zrotation Xrotation Yrotation
								JOINT LeftHand
								{
									OFFSET 24.65040 0.00000 0.00000
									CHANNELS 3 Zrotation Xrotation Yrotation
									JOINT LeftHandThumb1
									{
										OFFSET 5.35114 -0.85590 3.97906
										CHANNELS 3 Zrotation Xrotation Yrotation
										JOINT LeftHandThumb2
										{
											OFFSET 4.52789 0.00000 0.00000
											CHANNELS 3 Zrotation Xrotation Yrotation
											JOINT LeftHandThumb3
											{
												OFFSET 2.46977 0.00000 0.00000
												CHANNELS 3 Zrotation Xrotation Yrotation
												End site
												{
													OFFSET 0.00000 0.00000 0.00000
												}
											}
										}
									}
									JOINT LeftHandIndex1
									{
										OFFSET 14.26970 0.00000 2.88139
										CHANNELS 3 Zrotation Xrotation Yrotation
										JOINT LeftHandIndex2
										{
											OFFSET 5.48836 0.00000 0.00000
											CHANNELS 3 Zrotation Xrotation Yrotation
											JOINT LeftHandIndex3
											{
												OFFSET 3.01859 0.00000 0.00000
												CHANNELS 3 Zrotation Xrotation Yrotation
												End site
												{
													OFFSET 0.00000 0.00000 0.00000
												}
											}
										}
									}
									JOINT LeftHandMiddle1
									{
										OFFSET 14.26970 0.00000 -0.09147
										CHANNELS 3 Zrotation Xrotation Yrotation
										JOINT LeftHandMiddle2
										{
											OFFSET 6.17440 0.00000 0.00000
											CHANNELS 3 Zrotation Xrotation Yrotation
											JOINT LeftHandMiddle3
											{
												OFFSET 3.56744 0.00000 0.00000
												CHANNELS 3 Zrotation Xrotation Yrotation
												End site
												{
													OFFSET 0.00000 0.00000 0.00000
												}
											}
										}
									}
									JOINT LeftHandRing1
									{
										OFFSET 12.69180 0.00000 -3.06433
										CHANNELS 3 Zrotation Xrotation Yrotation
										JOINT LeftHandRing2
										{
											OFFSET 5.62556 0.00000 0.00000
											CHANNELS 3 Zrotation Xrotation Yrotation
											JOINT LeftHandRing3
											{
												OFFSET 3.56744 0.00000 0.00000
												CHANNELS 3 Zrotation Xrotation Yrotation
												End site
												{
													OFFSET 0.00000 0.00000 0.00000
												}
											}
										}
									}
									JOINT LeftHandPinky1
									{
										OFFSET 11.11390 0.00000 -6.03719
										CHANNELS 3 Zrotation Xrotation Yrotation
										JOINT LeftHandPinky2
										{
											OFFSET 4.52789 0.00000 0.00000
											CHANNELS 3 Zrotation Xrotation Yrotation
											JOINT LeftHandPinky3
											{
												OFFSET 2.46976 0.00000 0.00000
												CHANNELS 3 Zrotation Xrotation Yrotation
												End site
												{
													OFFSET 0.00000 0.00000 0.00000
												}
											}
										}
									}
								}
							}
						}
					}
					JOINT pCube4
					{
						OFFSET 0.00000 10.91090 1.10792
						CHANNELS 3 Zrotation Xrotation Yrotation
						End site
						{
							OFFSET 0.00000 0.00000 0.00000
						}
					}
				}
			}
		}
	}
	JOINT RightUpLeg
	{
		OFFSET -9.98441 0.00000 0.00000
		CHANNELS 3 Zrotation Xrotation Yrotation
		JOINT RightLeg
		{
			OFFSET 0.00000 -42.11790 0.00000
			CHANNELS 3 Zrotation Xrotation Yrotation
			JOINT RightFoot
			{
				OFFSET 0.00000 -45.00020 -0.00001
				CHANNELS 3 Zrotation Xrotation Yrotation
				JOINT RightForeFoot
				{
					OFFSET 0.00000 -3.74820 0.00000
					CHANNELS 3 Zrotation Xrotation Yrotation
					JOINT RightToeBase
					{
						OFFSET 0.00000 0.06325 14.43120
						CHANNELS 3 Zrotation Xrotation Yrotation
						End site
						{
							OFFSET 0.00000 0.00000 0.00000
						}
					}
				}
			}
		}
	}
	JOINT LeftUpLeg
	{
		OFFSET 9.98441 0.00000 0.00000
		CHANNELS 3 Zrotation Xrotation Yrotation
		JOINT LeftLeg
		{
			OFFSET 0.00000 -42.11800 0.00000
			CHANNELS 3 Zrotation Xrotation Yrotation
			JOINT LeftFoot
			{
				OFFSET 0.00000 -45.00070 0.00000
				CHANNELS 3 Zrotation Xrotation Yrotation
				JOINT LeftForeFoot
				{
					OFFSET 0.00000 -3.74824 0.00000
					CHANNELS 3 Zrotation Xrotation Yrotation
					JOINT LeftToeBase
					{
						OFFSET 0.00000 0.06325 14.43110
						CHANNELS 3 Zrotation Xrotation Yrotation
						End site
						{
							OFFSET 0.00000 0.00000 0.00000
						}
					}
				}
			}
		}
	}
}
MOTION
Frames: 4
Frame Time: 0.050000
0.03609245759429149 -0.014406375840220196 0.020418121800960275 0.022594413785725933 -0.021695911532493076 -0.015267508110730035 1.7748700540629607 1.7873722961917735 -1.7506103287825958 -0.6557135003924803 3.624032507098368 0.36457064325784116 -0.8470796277906194 -1.3649075591918756 0.8467699028821438 -0.7760812065678381 -0.5039539518344948 -0.3885684113427239 0.14448285425433213 11.98976320629119 -0.9677470362118211 0.46260722693915884 -0.4340524237995536 -2.491116860838386 0.7988508471632587 -16.180309109202845 -0.1948679867444908 -6.959314616110488 2.6962937731066954 -16.564374000635524 77.10125142489717 1.096567812835194 8.949148858362495 -19.16074044095772 7.034008640877469 79.19544398418184 8.060434637395483 0.4367328523081143 3.8298917854026593 4.510960671604798 -0.14922192693453057 -1.5819322401985345 -0.0005659827905264567 0.008599897675475254 -56.23073949034742 -0.038115541513619344 -0.014565232173673165 -56.20566823522794 -38.766488723557714 -0.045910059153482265 0.03259251834006438 0.010970534014343267 -0.007133317831490857 -0.03262492384298576 0.021586695505743228 -0.032042636440929514 -0.046205213063125805 -36.69800108452827 0.046396773742515274 -0.03545176624229252 0.025639697504027743 -0.04595570783858023 0.024472473379752037 0.00024606109897912427 0.019873582713332262 -0.022285466802977244 -19.72998415087057 -0.02305099817826269 0.021874152678568636 0.005637694589315971 0.014396664163279746 0.04497888316944831 -0.029939821745308678 -0.0484177649205672 0.032413358933712846 24.017664305882754 0.0259246814442522 0.041837411973161966 28.847080332110355 0.0018443335537764519 0.03698021592837578 28.89324000186699 0.00667990299964768 0.00597401770429564 6.67880829627699 1.7396331268991174 14.427054056766497 -75.94230419425061 19.20085676652012 -9.357352156844268 15.125840699548977 4.058989715605475 -57.908758505297286 -15.950497933115916 6.733654620024701 -2.9710466978841588 -0.46419055064842885 0.11631894621939062 -8.122064414854613 0.03959414300102968 -0.019931717616178377 44.541160756833094 -0.041820572446217084 -0.004004900912469129 44.55494099352183 12.498630543405431 0.026640020463638475 -0.006953233623599231 0.025128486102756538 -0.04729649224409657 0.0017166827107178888 -0.014745150190111586 0.00669889498872329 0.018785548884424554 11.149969012616747 0.003917736049940964 0.03019089415924247 0.03764876811356242 0.007724171452103163 0.008529991820073735 -0.0021619364829848684 -0.01148575987321749 0.03139816309672696 4.742208342235438 0.03966406586285432 -0.01291349372073525 0.008589082360874772 0.031216802286981822 0.025265585951164515 -0.009992203238571098 -0.0169638728258071 0.029386331993252128 -5.625388328832257 -0.029364632391044913 0.006503959925098726 -6.731198593101246 -0.0390023458089864 0.04955181356954441 -6.734830839556731 -3.595459976651945e-05 0.027293560022088024 0.046804761623493785 -0.007839177031928978 0.025485339944513574 8.035640759576571 3.499876773455923 -19.173872567885414 -0.02183180893189171 10.347779886563396 0.010882261307656732 -5.662741058048639 -15.625071989417886 3.1879992071659036 0.027707857043596275 -0.016218550244747533 -0.040084927964770464 -0.0404099479931223 4.706625178205764 0.0270337233576086 12.500652732192075 -8.250529388288797 6.896469486862325 -0.036591092629083166 46.426777053640194 0.03309348367274685 -4.28626476853076 -14.743575652857412 -3.825619774131416 0.047250109301195435 0.007459218564098991 0.042993269647198185 -0.04682028586594518 -10.721324560652905 0.04930544309708807 
-0.01965928632210039 0.011896983943365323 0.0276751158856481 -0.04326891746814829 0.032677246025773814 -0.003944809239485871 1.46856203672134 1.653426370514281 -1.6581769108342457 -0.6731971877192414 3.6961541991418603 0.3804050624848155 -0.7536957019029515 -1.4373277179440616 0.894673842968591 -0.7528299433901748 -0.6450530567388432 -0.33931639151660486 0.14551469204672723 12.136054006546463 -0.975072475185417 0.47924317935166166 -0.5423788045713047 -2.5973649798689937 0.865824270036171 -16.15547535922624 -0.2454870152544994 -6.432974110692589 2.5173918651885265 -16.45252139546395 77.13159761161158 0.6345035452005422 8.679626934180561 -19.22492933689438 8.002374918472986 75.25421186997754 9.007749069141061 0.5321621644513321 4.409622403451422 4.542399037161141 -0.13715918552119102 -1.6116048547621526 0.02221260268956977 0.04534456882021278 -56.23947764200991 -0.01249537993416495 0.0024465368721145243 -56.205724256322966 -38.81474159378028 0.021767521514734302 0.006672551909691556 -0.03459795784470406 -0.03756473814756848 -0.023276974885244377 -0.007510536932969894 -0.03408420109490841 -0.007504105245558258 -36.6747065778409 0.04434020745859996 0.026686396729211432 0.043113752646762996 -0.003351679890005645 0.01750851578322092 -0.034060349586165016 -0.044494280668846684 -0.017633289724379338 -19.752632987705294 0.027682081717026963 0.044490545846126786 0.005035073191163943 0.00459627395314805 0.03672899793259359 -0.03223923826135501 0.03770929661083999 0.028246804633154994 24.032229479808073 -0.037663771404297684 -0.03955224340378035 28.90207490687649 0.0445924635175806 0.028625866523368335 28.880621098075256 -0.012918296211151453 0.035017688394597665 6.2338431661564995 1.668502514814397 14.538222413897437 -76.62760866057899 17.59280374828581 -9.070451675101411 15.473511022820773 6.624256369337615 -55.46169441771469 -16.980766581580067 8.77972810217236 -4.221198966387442 -0.47142552403037713 0.06985718913175006 -8.075613634207182 -0.01653083546233587 0.024190020025888097 44.60488525296858 0.04827956558218843 -0.023414662160224555 44.52533685066151 12.417743780427868 0.0013276368883007833 -0.007101025718333469 -0.020755828324523405 -0.04186951180784613 -0.012249526772968441 0.005434161141838769 -0.008139996501329318 0.004435232687129318 11.150438171409842 -0.021677386290290396 0.01689765013207361 0.02549727049525213 -0.02199643437050876 -0.038006719971436224 -0.0053882986326088825 -0.01753552170653152 0.03439730603351542 4.780133386674601 0.021715266834049982 0.029578045479958053 0.02016750128580066 0.021115478477689676 0.017338211695709066 0.009617622198324117 0.033661206910748 -0.004688843877773857 -5.607034007487917 -0.02167572814813462 -0.008841971771843243 -6.7572395307830435 0.03171566986545718 0.008817798295607374 -6.735154952722045 0.025591037760532433 0.03978239049473585 -0.003990844439491682 0.00241747841836115 0.003166209322928441 8.0938329380035 3.467878981010038 -19.240595804734173 0.026299079957663098 10.392910634430315 0.0028019738793825643 -5.628042887769358 -15.651173492637051 3.184472332430691 -0.03732982709325343 0.030608739117071557 -0.010614034162501127 -0.02379342623645171 4.710747086964983 0.003681946732421321 12.44740452565759 -8.236998464119825 6.883108495563852 -0.037271476515771146 46.40955323684698 0.021473212973981852 -4.348134374348321 -14.757561020937349 -3.8698573007577193 -0.013218922718137129 0.028510348302656776 0.04519977871342622 0.026526321092808083 -10.76147534464429 -0.030882096019494532 
-0.015290132824226511 0.0030112812210670165 0.008492403684527014 -0.036366811748856365 0.008548080632423696 -0.027493312939793797 0.847364864454651 1.558367493663242 -1.576701817617928 -0.6248502157589071 3.7228549998862888 0.3306118366206773 -0.7671572982698441 -1.529448293008457 0.9436359521934888 -0.7469308297685177 -0.687873200022041 -0.397871774771185 0.11519015783142163 12.29142121855912 -0.9987667738184942 0.4577245202990101 -0.5522616340640574 -2.745279998237703 0.822586598364152 -16.046765914941524 -0.20311821931034113 -5.488422241959267 2.221250607059504 -16.236899395447143 76.71009278299015 1.609519743699682 8.494052797346708 -19.279964352254915 8.537555900914649 73.68053378065147 10.13262609754928 0.4945211638841531 4.713758276900631 4.513336332278982 -0.17558866469433748 -1.5612873135524714 -0.047978729344596384 0.012654270930519894 -56.261581523002505 0.021404505855982157 -0.04811436122821559 -56.18446632179019 -38.74277427474099 0.01601028560023556 0.02866804802834402 0.04247138451872602 -0.0050738390241072285 0.03538677527919142 0.00027815060432938077 0.01917713847292156 -0.03305145665149789 -36.68460178380013 0.0386407950920578 0.03844436311813902 -0.023223919189093455 0.005310750529676046 0.004671048664499605 0.0030854832706052877 -0.02601523709474531 -0.03987446167715939 -19.750517991485353 -0.025232985375423997 -0.01810329632078827 -0.028418470696408613 0.018647585558505108 -0.0038106210738911963 -0.01618970695780508 0.012487524906824733 0.023323607723702414 24.03261486569788 -0.007082376832057301 0.04002984873785316 28.86284157189938 -0.005757311510864694 -0.01893566456709709 28.824890061140305 0.035791454400120784 0.022886730358432552 5.659365331708591 1.5205766307147521 14.478509106652124 -76.89675093640705 16.839367306931013 -8.96672174059681 15.88995949217502 7.717679284402234 -55.8561195351294 -17.93016595742391 10.498686072788736 -5.465083116901028 -0.473935357638733 0.05662541952670673 -8.163609131173779 0.026796035289917586 0.015508241548730138 44.51851038822034 0.036781765004695946 -0.012390840102496152 44.596204562931355 12.473735442499274 -0.0035434260647434243 -0.0260392952124144 -0.030046696396482882 -0.04395835597319517 -0.030956124161869474 0.010055168906356764 0.008879302492649063 -0.018030324345549357 11.069668541000828 0.0065185969014883985 -0.037323559670667 0.03671357672223108 -0.01497984921832874 0.00030580937113097853 -0.019080561708325647 -0.047996631234538616 -0.029602038242648673 4.774504850153341 0.01827612979162892 -0.029717364221527567 0.016410024074835914 -0.009345534829427482 0.028740132695715584 -0.046131648673332706 0.009654320195731677 0.005120059638877924 -5.550798048180023 0.049566479308513336 0.01068396569201461 -6.729786644902492 0.022358448534685094 -0.0008701019839050929 -6.726563880586252 -0.024995031454056824 0.010977033069786231 -0.025615544313075292 -0.026571051668968837 -0.0200838400295123 8.043260795609658 3.470062891005431 -19.24812179085725 0.028286173362398956 10.40231601211653 -0.0027240970076585352 -5.623254710234459 -15.618619986535238 3.180686280762699 0.007305006622096355 0.03285487126995358 0.022480615746347656 -0.03665558055797827 4.659732292243295 0.0059173407854287725 12.454408076107867 -8.264906473756374 6.871773964939318 0.01349550244317065 46.36114888435104 -0.007284597832251927 -4.285505443056114 -14.754841543306128 -3.81805727969035 0.019640788250573086 0.010514790424935838 0.0005688592331657091 0.0184112558625674 -10.773867839163964 0.0392065200567839 
-0.020236555807869643 -0.028272760303869538 0.006854860289885487 0.03259569402940207 -0.013993594497025029 -0.012457079323996161 0.13345399400579605 1.4324165650867138 -1.4691618128855637 -0.57885373701304 3.766005803020251 0.3434107852708146 -0.8410772953429677 -1.573653932436687 0.9667949819498619 -0.7650793907408054 -0.617478746222183 -0.33692417051190476 0.0813224655807531 12.456416526649368 -0.9320262370976207 0.47959333648317476 -0.5331469622247114 -2.989242522836182 0.8605175239621049 -16.007570839522714 -0.29089362420291165 -4.39247978364103 1.8819752454557037 -15.80373303890551 75.60812705750027 3.521466281580943 8.483305313140765 -18.826549004117343 8.651627226266807 75.08538567734621 11.20373761737456 0.4308505210785926 4.759738170141497 4.562154863465981 -0.10550484792744366 -1.6237964801767173 0.015135568488276754 0.03475995428346101 -56.23607106109468 0.03872266939363512 0.019779159452212217 -56.22160040925177 -38.80130569772426 -0.005138459925324072 -0.018961303577870924 0.013047343031145365 -0.02185445048721746 0.015848247268457284 0.019042101956962917 -0.04336638077441424 -0.02534961416905448 -36.72158667001863 -0.010180415045111838 -0.017879174208323852 0.036213577745745774 -0.015962676169703763 -0.012830512852183618 -0.020131936981858264 -0.0010685670459549452 0.04182950636372383 -19.792107222160766 0.0028886858527493193 -0.0030376192054673325 -0.019794066497919493 -0.030890716536779942 -0.00234224911295203 -0.01735288247147386 -0.0025689941280561423 0.04081052253146302 24.09061176707922 0.045536575699886714 -0.004780252965644817 28.837804830626947 -0.04197523617471009 -0.033898197912506915 28.83274940005404 -0.021471962742800044 -0.04290447798871189 4.97791883180031 1.4621535200388365 14.451700413671267 -76.77445828756778 17.605137098203695 -8.920464917527616 16.60117869451563 6.386947461882534 -59.91179009220215 -18.414735440547172 11.740488578023745 -6.681036831027257 -0.43182055868969804 0.05274400394026883 -8.16329887372093 0.03310986297991214 0.0442354093015799 44.58904189210817 -0.011170633149665155 -0.012696138650677105 44.56607844437294 12.425108842862686 0.027610629106220957 0.003917534776245011 0.027666155701436664 -0.04550803076353301 -0.010328230285640918 -0.039933976632884574 -0.0176201667431014 0.019963051860496288 11.078062805766049 0.008088712652534422 0.024247809346717313 -0.04245484993499839 -0.043773753953533154 0.000958292658308422 0.0023458744040560395 0.04623748214516493 -0.027834024952581193 4.763778711677195 0.04839363697924817 0.01012662395722261 -0.007835068871807281 -0.028175792705739045 -0.02744097299030022 0.040777504896054334 -0.04087061530289651 0.04668888676335523 -5.601481217132082 0.03536326020284653 0.006203484573286806 -6.71407846522594 0.009012666792119149 0.013541822003357167 -6.763017589966143 -0.0347617307282406 0.033116171736054224 -0.009333961951497693 0.012805894206515987 -0.011887598197533553 8.031046301093548 3.5030930494657064 -19.172118167428202 0.006477285295603035 10.407394066103853 -0.027076987308847906 -5.650522274380418 -15.686349026091003 3.202037113788029 0.019895145114743978 -0.003090196309769098 -0.04636598012448238 -0.04197175254649758 4.73505564379113 -0.03887567924676378 12.434346289448145 -8.207095880591575 6.8733883583394455 0.004254449834914413 46.38399710345657 0.040314068546372844 -4.365865839835252 -14.768456862902243 -3.8582084677382307 -0.010733929271234894 0.03359651109399848 -0.016927018869269447 0.01013253661662715 -10.764496869970822 0.018652300645612588 
